<svg width="177" height="61" viewBox="0 0 177 61" fill="none" xmlns="http://www.w3.org/2000/svg">
<path d="M59.8827 15.4013H59.822V15.41C59.8393 15.41 59.8567 15.4013 59.8827 15.4013Z" fill="#168F8C"/>
<path d="M60.2861 14.8255V51.6813H68.95V24.0566C68.95 21.9938 67.8498 15.7623 60.2861 14.8255Z" fill="#0CA49D"/>
<path d="M14.2163 45.2694C15.3165 45.2694 16.219 45.1318 16.9238 44.8482C17.62 44.5732 18.1701 44.2036 18.5654 43.7652C18.9522 43.3183 19.2273 42.8198 19.3734 42.2611C19.5195 41.7024 19.5969 41.1351 19.5969 40.5592C19.5969 39.8974 19.5109 39.3044 19.339 38.7801C19.1671 38.2557 18.8663 37.8088 18.4537 37.4478C18.0326 37.0868 17.4739 36.8032 16.7863 36.6055C16.0901 36.4078 15.2219 36.3133 14.1647 36.3133H8.34586V45.2694H14.2163ZM8.34586 21.8563V30.735H12.6864C13.6061 30.735 14.4398 30.6749 15.179 30.5373C15.9182 30.4084 16.5456 30.1763 17.0699 29.8497C17.5856 29.5231 17.981 29.0676 18.256 28.4917C18.5225 27.9158 18.66 27.1938 18.66 26.3171C18.66 25.4662 18.5483 24.7528 18.342 24.1855C18.1271 23.6183 17.7919 23.1627 17.3535 22.8189C16.9066 22.4751 16.3393 22.2259 15.6603 22.0797C14.9813 21.9336 14.1647 21.8563 13.2279 21.8563H8.34586ZM13.2279 15.6162C15.7119 15.6162 17.8263 15.8483 19.5711 16.3038C21.3159 16.768 22.7427 17.4126 23.8428 18.2549C24.943 19.0886 25.751 20.1115 26.2495 21.3148C26.748 22.5095 27.0058 23.8503 27.0058 25.3373C27.0058 26.1366 26.8855 26.9188 26.6535 27.6666C26.43 28.4143 26.0604 29.1105 25.5705 29.7638C25.0805 30.4084 24.4445 31.0101 23.6709 31.5516C22.8974 32.0931 21.9691 32.5658 20.8775 32.9612C23.2498 33.537 25.0032 34.4653 26.1377 35.746C27.2723 37.0266 27.8396 38.6941 27.8396 40.7311C27.8396 42.2611 27.5473 43.6793 26.9543 44.9943C26.3612 46.3094 25.4931 47.4611 24.35 48.441C23.2068 49.4208 21.7972 50.1858 20.1126 50.7359C18.4365 51.2859 16.5198 51.561 14.3624 51.561H0V15.6162H13.2279Z" fill="#0CA49D"/>
<path d="M52.9201 22.9134C52.6709 23.3088 52.413 23.6096 52.138 23.8073C51.8715 24.005 51.5191 24.0996 51.0893 24.0996C50.7112 24.0996 50.3072 23.9792 49.8688 23.7386C49.4391 23.5065 48.9406 23.2401 48.3905 22.9392C47.8404 22.647 47.213 22.3805 46.4996 22.1399C45.7948 21.8992 44.9868 21.7789 44.0843 21.7789C42.52 21.7789 41.3511 22.1141 40.5861 22.7845C39.8212 23.4463 39.443 24.3488 39.443 25.4834C39.443 26.2054 39.675 26.807 40.1306 27.2798C40.5947 27.7611 41.1964 28.1736 41.9441 28.5175C42.7005 28.8613 43.5514 29.1793 44.5141 29.4629C45.4767 29.7551 46.4566 30.0732 47.4622 30.4256C48.4678 30.7866 49.4477 31.1991 50.4103 31.6719C51.373 32.1532 52.2325 32.7634 52.9803 33.5026C53.728 34.2418 54.3383 35.1443 54.7938 36.2015C55.258 37.2587 55.49 38.5394 55.49 40.0349C55.49 41.7024 55.1978 43.2581 54.6219 44.702C54.0461 46.146 53.2123 47.4095 52.1208 48.4925C51.0206 49.5669 49.6712 50.4092 48.0725 51.0281C46.4652 51.6469 44.643 51.9563 42.606 51.9563C41.48 51.9563 40.3455 51.836 39.1851 51.6125C38.0248 51.3805 36.8988 51.0538 35.8158 50.6327C34.7243 50.2115 33.71 49.7216 32.756 49.1457C31.8019 48.5699 30.9682 47.9252 30.2634 47.2204L32.7302 43.3182C32.9279 43.0432 33.1857 42.8025 33.5037 42.6134C33.8304 42.4243 34.1742 42.3298 34.5524 42.3298C35.0509 42.3298 35.5494 42.4931 36.0479 42.8025C36.5464 43.112 37.1223 43.4558 37.7497 43.8339C38.3858 44.2121 39.1164 44.5645 39.9329 44.874C40.758 45.1834 41.7293 45.3467 42.8466 45.3467C44.3594 45.3467 45.5369 45.0115 46.3792 44.3411C47.2215 43.6792 47.6341 42.622 47.6341 41.1695C47.6341 40.3357 47.402 39.6481 46.9465 39.1238C46.4824 38.5995 45.8807 38.1612 45.1329 37.8174C44.3852 37.4736 43.5342 37.1641 42.5802 36.9063C41.6261 36.6398 40.6463 36.3476 39.6407 36.0296C38.635 35.7116 37.6552 35.3162 36.7011 34.8435C35.7471 34.3793 34.8962 33.7605 34.1484 32.9955C33.4006 32.2305 32.7904 31.2765 32.3348 30.1333C31.8707 28.9902 31.6386 27.5806 31.6386 25.9045C31.6386 24.5551 31.9137 23.2401 32.4551 21.9508C32.9966 20.6701 33.796 19.527 34.8532 18.5213C35.9018 17.5243 37.1996 16.7164 38.7296 16.1233C40.2595 15.5216 42.0129 15.2208 43.9812 15.2208C45.09 15.2208 46.1643 15.3068 47.2044 15.4787C48.253 15.6506 49.2414 15.9084 50.1783 16.2436C51.1151 16.5788 51.9918 16.9828 52.8084 17.4555C53.6249 17.9197 54.3469 18.4526 54.9915 19.0456L52.9201 22.9134Z" fill="#0CA49D"/>
<path d="M69.9041 1.54601C69.8783 1.24518 69.8439 0.944349 69.8009 0.652115C71.7434 2.65478 74.5111 3.82371 77.5108 3.63462C78.9461 3.54867 80.287 3.15329 81.4817 2.51725C80.5534 4.14173 80.0721 6.03266 80.201 8.03532C80.3557 10.5107 81.4129 12.7111 83.0288 14.3441C82.2037 14.1808 81.3442 14.1121 80.4589 14.1722C76.9521 14.3957 73.9868 16.4241 72.4224 19.2949C71.8036 15.0489 68.5031 11.7484 64.386 11.0264C67.867 9.32458 70.1619 5.64588 69.9041 1.54601Z" fill="#F9AD3C"/>
<path d="M162.259 47.9799L160.668 43.8582C160.621 43.7357 160.571 43.5943 160.519 43.434C160.467 43.2691 160.418 43.0947 160.371 42.9109C160.272 43.2926 160.171 43.6108 160.067 43.8653L158.476 47.9799H162.259ZM165.115 51.7411H164.054C163.932 51.7411 163.833 51.7105 163.757 51.6492C163.682 51.5879 163.625 51.5102 163.588 51.4159L162.64 48.9697H158.094L157.147 51.4159C157.119 51.5007 157.065 51.5761 156.984 51.6421C156.904 51.7081 156.805 51.7411 156.687 51.7411H155.627L159.678 41.61H161.064L165.115 51.7411Z" fill="#F8AD3C"/>
<path d="M156.369 42.7624H153.089V51.7411H151.724V42.7624H148.437V41.61H156.369V42.7624Z" fill="#F8AD3C"/>
<path d="M143.792 46.5165C144.188 46.5165 144.536 46.4694 144.838 46.3751C145.144 46.2761 145.399 46.1394 145.602 45.965C145.809 45.7859 145.965 45.5738 146.068 45.3288C146.172 45.0837 146.224 44.8127 146.224 44.5157C146.224 43.9124 146.026 43.4576 145.63 43.1512C145.234 42.8449 144.64 42.6917 143.848 42.6917H142.35V46.5165H143.792ZM148.472 51.7411H147.256C147.006 51.7411 146.822 51.6445 146.705 51.4512L144.075 47.8315C143.994 47.7184 143.907 47.6382 143.813 47.5911C143.723 47.5393 143.582 47.5133 143.389 47.5133H142.35V51.7411H140.985V41.61H143.848C144.489 41.61 145.043 41.676 145.51 41.808C145.976 41.9352 146.36 42.1214 146.662 42.3665C146.968 42.6116 147.195 42.9085 147.341 43.2573C147.487 43.6014 147.56 43.9878 147.56 44.4167C147.56 44.775 147.503 45.1096 147.39 45.4207C147.277 45.7317 147.112 46.0122 146.895 46.262C146.683 46.5071 146.422 46.7168 146.111 46.8912C145.804 47.0656 145.456 47.1976 145.064 47.2871C145.239 47.3861 145.39 47.5298 145.517 47.7184L148.472 51.7411Z" fill="#F8AD3C"/>
<path d="M136.796 47.9799L135.205 43.8582C135.158 43.7357 135.109 43.5943 135.057 43.434C135.005 43.2691 134.956 43.0947 134.908 42.9109C134.809 43.2926 134.708 43.6108 134.604 43.8653L133.014 47.9799H136.796ZM139.652 51.7411H138.592C138.469 51.7411 138.37 51.7105 138.295 51.6492C138.219 51.5879 138.163 51.5102 138.125 51.4159L137.178 48.9697H132.632L131.685 51.4159C131.656 51.5007 131.602 51.5761 131.522 51.6421C131.442 51.7081 131.343 51.7411 131.225 51.7411H130.165L134.216 41.61H135.601L139.652 51.7411Z" fill="#F8AD3C"/>
<path d="M123.418 46.0499H123.935C124.114 46.0499 124.257 46.0287 124.366 45.9862C124.474 45.9391 124.573 45.8614 124.663 45.7529L128.035 41.9352C128.129 41.8127 128.228 41.7278 128.332 41.6807C128.436 41.6336 128.563 41.61 128.714 41.61H129.873L126.013 45.9721C125.919 46.0852 125.827 46.1795 125.737 46.2549C125.652 46.3256 125.561 46.3845 125.462 46.4317C125.589 46.4741 125.704 46.5377 125.808 46.6225C125.912 46.7027 126.013 46.8087 126.112 46.9407L130.142 51.7411H128.954C128.865 51.7411 128.787 51.7364 128.721 51.727C128.66 51.7128 128.605 51.694 128.558 51.6704C128.511 51.6421 128.469 51.6115 128.431 51.5785C128.398 51.5408 128.365 51.4984 128.332 51.4512L124.839 47.4285C124.745 47.3107 124.644 47.2282 124.535 47.1811C124.427 47.1292 124.262 47.1033 124.041 47.1033H123.418V51.7411H122.054V41.61H123.418V46.0499Z" fill="#F8AD3C"/>
<path d="M117.865 47.9799L116.274 43.8582C116.227 43.7357 116.178 43.5943 116.126 43.434C116.074 43.2691 116.024 43.0947 115.977 42.9109C115.878 43.2926 115.777 43.6108 115.673 43.8653L114.083 47.9799H117.865ZM120.721 51.7411H119.661C119.538 51.7411 119.439 51.7105 119.364 51.6492C119.288 51.5879 119.232 51.5102 119.194 51.4159L118.247 48.9697H113.701L112.753 51.4159C112.725 51.5007 112.671 51.5761 112.591 51.6421C112.511 51.7081 112.412 51.7411 112.294 51.7411H111.233L115.284 41.61H116.67L120.721 51.7411Z" fill="#F8AD3C"/>
<path d="M108.459 47.7042V51.7411H107.087V47.7042L103.376 41.61H104.578C104.7 41.61 104.797 41.6407 104.868 41.7019C104.938 41.7585 105 41.8339 105.051 41.9282L107.37 45.8661C107.455 46.031 107.533 46.1866 107.604 46.3327C107.674 46.4741 107.736 46.6178 107.787 46.7639C107.839 46.6178 107.898 46.4741 107.964 46.3327C108.03 46.1866 108.103 46.031 108.183 45.8661L110.495 41.9282C110.538 41.848 110.596 41.775 110.672 41.709C110.747 41.643 110.844 41.61 110.962 41.61H112.171L108.459 47.7042Z" fill="#F8AD3C"/>
<path d="M102.791 46.87V50.7584C102.282 51.126 101.737 51.4017 101.158 51.5856C100.583 51.7647 99.9512 51.8542 99.263 51.8542C98.4476 51.8542 97.7124 51.7293 97.0572 51.4795C96.4021 51.225 95.8412 50.8715 95.3746 50.419C94.9127 49.9618 94.5569 49.4151 94.3071 48.7788C94.0573 48.1425 93.9324 47.4426 93.9324 46.6791C93.9324 45.9061 94.0526 45.2015 94.2929 44.5652C94.538 43.9289 94.8844 43.3845 95.3322 42.9321C95.78 42.4749 96.3243 42.1214 96.9653 41.8716C97.6063 41.6218 98.3227 41.4969 99.1146 41.4969C99.5152 41.4969 99.8875 41.5275 100.232 41.5888C100.576 41.6454 100.894 41.7302 101.186 41.8433C101.478 41.9517 101.749 42.086 101.999 42.2463C102.249 42.4018 102.482 42.5786 102.699 42.7765L102.31 43.3987C102.249 43.4929 102.169 43.5542 102.07 43.5825C101.976 43.6061 101.869 43.5825 101.752 43.5118C101.639 43.4458 101.509 43.3657 101.363 43.2714C101.217 43.1772 101.038 43.0876 100.825 43.0028C100.618 42.9132 100.371 42.8378 100.083 42.7765C99.8003 42.7153 99.4634 42.6846 99.0722 42.6846C98.5019 42.6846 97.9858 42.7789 97.5239 42.9674C97.062 43.1512 96.6684 43.4175 96.3432 43.7663C96.018 44.1104 95.7682 44.5299 95.5938 45.0247C95.4194 45.5149 95.3322 46.0664 95.3322 46.6791C95.3322 47.3154 95.4218 47.8857 95.6009 48.39C95.7847 48.8896 96.0439 49.3161 96.3785 49.6696C96.7179 50.0184 97.1279 50.2847 97.6087 50.4685C98.0894 50.6523 98.6291 50.7442 99.2277 50.7442C99.699 50.7442 100.116 50.6924 100.479 50.5887C100.847 50.4803 101.205 50.3318 101.554 50.1433V47.9163H99.9771C99.8875 47.9163 99.8145 47.8904 99.7579 47.8385C99.7061 47.7867 99.6802 47.7231 99.6802 47.6477V46.87H102.791Z" fill="#F8AD3C"/>
<path d="M92.5993 46.6791C92.5993 47.4379 92.4791 48.1355 92.2387 48.7718C91.9984 49.4033 91.659 49.9477 91.2207 50.4049C90.7823 50.8621 90.2545 51.2179 89.637 51.4724C89.0243 51.7222 88.3456 51.8471 87.6009 51.8471C86.8562 51.8471 86.1775 51.7222 85.5648 51.4724C84.9521 51.2179 84.4266 50.8621 83.9882 50.4049C83.5499 49.9477 83.2105 49.4033 82.9702 48.7718C82.7298 48.1355 82.6096 47.4379 82.6096 46.6791C82.6096 45.9203 82.7298 45.2251 82.9702 44.5935C83.2105 43.9572 83.5499 43.4105 83.9882 42.9533C84.4266 42.4914 84.9521 42.1332 85.5648 41.8787C86.1775 41.6241 86.8562 41.4969 87.6009 41.4969C88.3456 41.4969 89.0243 41.6241 89.637 41.8787C90.2545 42.1332 90.7823 42.4914 91.2207 42.9533C91.659 43.4105 91.9984 43.9572 92.2387 44.5935C92.4791 45.2251 92.5993 45.9203 92.5993 46.6791ZM91.1924 46.6791C91.1924 46.0569 91.1076 45.4984 90.9379 45.0035C90.7682 44.5086 90.5278 44.0915 90.2168 43.7522C89.9057 43.4081 89.5286 43.1442 89.0856 42.9603C88.6425 42.7765 88.1476 42.6846 87.6009 42.6846C87.0589 42.6846 86.5664 42.7765 86.1233 42.9603C85.6803 43.1442 85.3009 43.4081 84.9851 43.7522C84.674 44.0915 84.4336 44.5086 84.2639 45.0035C84.0943 45.4984 84.0094 46.0569 84.0094 46.6791C84.0094 47.3012 84.0943 47.8597 84.2639 48.3546C84.4336 48.8448 84.674 49.2619 84.9851 49.606C85.3009 49.9454 85.6803 50.2069 86.1233 50.3908C86.5664 50.5699 87.0589 50.6594 87.6009 50.6594C88.1476 50.6594 88.6425 50.5699 89.0856 50.3908C89.5286 50.2069 89.9057 49.9454 90.2168 49.606C90.5278 49.2619 90.7682 48.8448 90.9379 48.3546C91.1076 47.8597 91.1924 47.3012 91.1924 46.6791Z" fill="#F8AD3C"/>
<path d="M78.7574 47.7042V51.7411H77.3859V47.7042L73.6742 41.61H74.8761C74.9986 41.61 75.0952 41.6407 75.1659 41.7019C75.2366 41.7585 75.2979 41.8339 75.3497 41.9282L77.6687 45.8661C77.7535 46.031 77.8313 46.1866 77.902 46.3327C77.9727 46.4741 78.0339 46.6178 78.0858 46.7639C78.1376 46.6178 78.1965 46.4741 78.2625 46.3327C78.3285 46.1866 78.4016 46.031 78.4817 45.8661L80.7935 41.9282C80.8359 41.848 80.8949 41.775 80.9703 41.709C81.0457 41.643 81.1423 41.61 81.2601 41.61H82.4691L78.7574 47.7042Z" fill="#F8AD3C"/>
<path d="M172.32 31.1087C172.716 31.1087 173.064 31.0616 173.366 30.9673C173.672 30.8684 173.927 30.7317 174.13 30.5573C174.337 30.3782 174.493 30.1661 174.596 29.921C174.7 29.6759 174.752 29.4049 174.752 29.108C174.752 28.5047 174.554 28.0498 174.158 27.7435C173.762 27.4371 173.168 27.2839 172.376 27.2839H170.877V31.1087H172.32ZM177 36.3334H175.784C175.534 36.3334 175.35 36.2367 175.233 36.0435L172.603 32.4237C172.522 32.3106 172.435 32.2305 172.341 32.1834C172.251 32.1315 172.11 32.1056 171.917 32.1056H170.877V36.3334H169.513V26.2023H172.376C173.017 26.2023 173.571 26.2682 174.038 26.4002C174.504 26.5275 174.888 26.7136 175.19 26.9587C175.496 27.2038 175.723 27.5008 175.869 27.8495C176.015 28.1936 176.088 28.5801 176.088 29.009C176.088 29.3672 176.031 29.7018 175.918 30.0129C175.805 30.324 175.64 30.6044 175.423 30.8542C175.211 31.0993 174.95 31.309 174.639 31.4834C174.332 31.6578 173.983 31.7898 173.592 31.8793C173.767 31.9783 173.918 32.1221 174.045 32.3106L177 36.3334Z" fill="#F8AD3C"/>
<path d="M167.602 35.2163L167.595 36.3334H161.352V26.2023H167.595V27.3193H162.724V30.6845H166.669V31.7592H162.724V35.2163H167.602Z" fill="#F8AD3C"/>
<path d="M159.849 27.3546H156.569V36.3334H155.204V27.3546H151.917V26.2023H159.849V27.3546Z" fill="#F8AD3C"/>
<path d="M150.408 26.2023V36.3334H149.723C149.614 36.3334 149.522 36.3145 149.447 36.2768C149.376 36.2391 149.305 36.1755 149.235 36.0859L143.374 28.4505C143.383 28.5683 143.39 28.6838 143.395 28.7969C143.4 28.91 143.402 29.0161 143.402 29.115V36.3334H142.2V26.2023H142.907C142.968 26.2023 143.02 26.207 143.063 26.2164C143.105 26.2211 143.143 26.2329 143.176 26.2518C143.209 26.2659 143.242 26.2895 143.275 26.3225C143.308 26.3507 143.343 26.3884 143.381 26.4356L149.242 34.0639C149.232 33.9414 149.223 33.8236 149.213 33.7104C149.209 33.5926 149.206 33.4818 149.206 33.3782V26.2023H150.408Z" fill="#F8AD3C"/>
<path d="M140.289 35.2163L140.282 36.3334H134.04V26.2023H140.282V27.3193H135.411V30.6845H139.356V31.7592H135.411V35.2163H140.289Z" fill="#F8AD3C"/>
<path d="M131.707 34.2407C131.782 34.2407 131.848 34.2713 131.905 34.3326L132.449 34.9194C132.034 35.4001 131.53 35.7748 130.936 36.0435C130.347 36.3121 129.633 36.4465 128.794 36.4465C128.068 36.4465 127.408 36.3216 126.815 36.0718C126.221 35.8172 125.714 35.4637 125.295 35.0113C124.875 34.5541 124.55 34.0074 124.319 33.3711C124.088 32.7348 123.972 32.0349 123.972 31.2713C123.972 30.5078 124.093 29.8079 124.333 29.1716C124.573 28.5353 124.91 27.9886 125.344 27.5314C125.782 27.0742 126.306 26.7207 126.914 26.4709C127.522 26.2164 128.193 26.0891 128.928 26.0891C129.65 26.0891 130.286 26.2046 130.837 26.4356C131.389 26.6665 131.874 26.9799 132.294 27.3758L131.841 28.0051C131.813 28.0522 131.775 28.0923 131.728 28.1253C131.686 28.1535 131.627 28.1677 131.551 28.1677C131.467 28.1677 131.363 28.1229 131.24 28.0333C131.118 27.9391 130.957 27.8354 130.76 27.7223C130.562 27.6092 130.314 27.5078 130.017 27.4183C129.72 27.324 129.355 27.2769 128.921 27.2769C128.398 27.2769 127.92 27.3688 127.486 27.5526C127.053 27.7317 126.678 27.9933 126.362 28.3373C126.051 28.6814 125.808 29.1009 125.634 29.5958C125.46 30.0907 125.372 30.6492 125.372 31.2713C125.372 31.9029 125.462 32.4661 125.641 32.961C125.825 33.4559 126.072 33.8754 126.383 34.2195C126.699 34.5588 127.069 34.818 127.493 34.9971C127.922 35.1762 128.384 35.2658 128.879 35.2658C129.181 35.2658 129.452 35.2493 129.692 35.2163C129.937 35.1786 130.161 35.122 130.364 35.0466C130.571 34.9712 130.762 34.877 130.936 34.7638C131.115 34.646 131.292 34.507 131.467 34.3467C131.547 34.276 131.627 34.2407 131.707 34.2407Z" fill="#F8AD3C"/>
<path d="M118.386 26.2023V36.3334H117.184V28.8888C117.184 28.7898 117.187 28.6838 117.192 28.5707C117.201 28.4575 117.21 28.3421 117.22 28.2242L113.741 34.5588C113.633 34.7709 113.468 34.877 113.247 34.877H113.049C112.827 34.877 112.662 34.7709 112.554 34.5588L109.005 28.196C109.033 28.4458 109.047 28.6767 109.047 28.8888V36.3334H107.845V26.2023H108.856C108.979 26.2023 109.073 26.214 109.139 26.2376C109.205 26.2612 109.269 26.3272 109.33 26.4356L112.829 32.6712C112.886 32.7843 112.94 32.9021 112.992 33.0247C113.049 33.1472 113.1 33.2721 113.148 33.3994C113.195 33.2721 113.244 33.1472 113.296 33.0247C113.348 32.8974 113.404 32.7772 113.466 32.6641L116.902 26.4356C116.958 26.3272 117.019 26.2612 117.085 26.2376C117.156 26.214 117.253 26.2023 117.375 26.2023H118.386Z" fill="#F8AD3C"/>
<path d="M99.8476 30.6421H100.364C100.543 30.6421 100.687 30.6209 100.795 30.5785C100.903 30.5314 101.002 30.4536 101.092 30.3452L104.464 26.5275C104.558 26.4049 104.657 26.3201 104.761 26.273C104.865 26.2258 104.992 26.2023 105.143 26.2023H106.302L102.442 30.5644C102.348 30.6775 102.256 30.7717 102.167 30.8472C102.082 30.9179 101.99 30.9768 101.891 31.0239C102.018 31.0663 102.134 31.1299 102.237 31.2148C102.341 31.2949 102.442 31.401 102.541 31.5329L106.571 36.3334H105.383C105.294 36.3334 105.216 36.3286 105.15 36.3192C105.089 36.3051 105.035 36.2862 104.987 36.2627C104.94 36.2344 104.898 36.2037 104.86 36.1707C104.827 36.133 104.794 36.0906 104.761 36.0435L101.269 32.0207C101.174 31.9029 101.073 31.8204 100.965 31.7733C100.856 31.7215 100.691 31.6955 100.47 31.6955H99.8476V36.3334H98.4831V26.2023H99.8476V30.6421Z" fill="#F8AD3C"/>
<path d="M95.8926 26.2023V36.3334H94.6908V28.8888C94.6908 28.7898 94.6931 28.6838 94.6978 28.5707C94.7073 28.4575 94.7167 28.3421 94.7261 28.2242L91.2478 34.5588C91.1393 34.7709 90.9744 34.877 90.7529 34.877H90.5549C90.3334 34.877 90.1684 34.7709 90.06 34.5588L86.511 28.196C86.5392 28.4458 86.5534 28.6767 86.5534 28.8888V36.3334H85.3515V26.2023H86.3625C86.485 26.2023 86.5793 26.214 86.6453 26.2376C86.7113 26.2612 86.7749 26.3272 86.8362 26.4356L90.3357 32.6712C90.3923 32.7843 90.4465 32.9021 90.4983 33.0247C90.5549 33.1472 90.6068 33.2721 90.6539 33.3994C90.701 33.2721 90.7505 33.1472 90.8024 33.0247C90.8542 32.8974 90.9108 32.7772 90.972 32.6641L94.408 26.4356C94.4645 26.3272 94.5258 26.2612 94.5918 26.2376C94.6625 26.214 94.7591 26.2023 94.8817 26.2023H95.8926Z" fill="#F8AD3C"/>
<path d="M78.8634 35.2446C79.2829 35.2446 79.6576 35.1739 79.9875 35.0325C80.3175 34.8911 80.5956 34.6931 80.8218 34.4386C81.0527 34.1841 81.2271 33.8801 81.345 33.5266C81.4675 33.1731 81.5288 32.7843 81.5288 32.3601V26.2023H82.8933V32.3601C82.8933 32.9445 82.799 33.4866 82.6105 33.9862C82.4266 34.4858 82.1603 34.9194 81.8116 35.287C81.4675 35.6499 81.0457 35.9351 80.5461 36.1425C80.0465 36.3498 79.4856 36.4535 78.8634 36.4535C78.2413 36.4535 77.6804 36.3498 77.1808 36.1425C76.6812 35.9351 76.257 35.6499 75.9082 35.287C75.5595 34.9194 75.2908 34.4858 75.1023 33.9862C74.9185 33.4866 74.8266 32.9445 74.8266 32.3601V26.2023H76.191V32.353C76.191 32.7772 76.25 33.1661 76.3678 33.5196C76.4903 33.873 76.6647 34.177 76.891 34.4316C77.1219 34.6861 77.4023 34.8864 77.7323 35.0325C78.0669 35.1739 78.444 35.2446 78.8634 35.2446Z" fill="#F8AD3C"/>
</svg>
