<svg width="246" height="216" viewBox="0 0 246 216" fill="none" xmlns="http://www.w3.org/2000/svg">
<g filter="url(#filter0_d_74_3865)">
<path d="M139.978 59.9678V122.182H154.256V75.5504C154.256 72.0683 152.443 61.5493 139.978 59.9678Z" fill="#0CA49D"/>
<path d="M62.1937 111.05C64.0276 111.05 65.5319 110.818 66.7068 110.339C67.8673 109.875 68.7842 109.251 69.4433 108.511C70.088 107.756 70.5465 106.915 70.79 105.972C71.0336 105.028 71.1625 104.071 71.1625 103.098C71.1625 101.981 71.0193 100.98 70.7327 100.095C70.4462 99.2096 69.9447 98.455 69.257 97.8455C68.555 97.2361 67.6237 96.7572 66.4775 96.4235C65.317 96.0897 63.87 95.9301 62.1077 95.9301H52.4082V111.05H62.1937ZM52.4082 71.5227V86.5125H59.6434C61.1764 86.5125 62.5662 86.4109 63.7983 86.1787C65.0305 85.9611 66.0764 85.5693 66.9503 85.0179C67.81 84.4665 68.469 83.6974 68.9275 82.7252C69.3716 81.7529 69.6009 80.534 69.6009 79.0539C69.6009 77.6173 69.4146 76.4129 69.0708 75.4552C68.7126 74.4975 68.1538 73.7284 67.4231 73.1479C66.6781 72.5675 65.7325 72.1467 64.6007 71.9C63.4688 71.6533 62.1077 71.5227 60.5461 71.5227H52.4082ZM60.5461 60.9878C64.6866 60.9878 68.2111 61.3796 71.1196 62.1487C74.028 62.9323 76.4063 64.0206 78.2402 65.4426C80.0741 66.8502 81.4208 68.577 82.2518 70.6085C83.0828 72.6256 83.5126 74.8893 83.5126 77.3996C83.5126 78.7492 83.312 80.0697 82.9252 81.3321C82.5527 82.5946 81.9366 83.7699 81.12 84.8728C80.3033 85.9611 79.2431 86.9769 77.9536 87.891C76.6642 88.8052 75.1169 89.6033 73.2973 90.2708C77.2516 91.2431 80.1744 92.8102 82.0656 94.9724C83.9568 97.1345 84.9024 99.9496 84.9024 103.389C84.9024 105.972 84.4152 108.366 83.4267 110.586C82.4381 112.806 80.991 114.751 79.0855 116.405C77.18 118.059 74.8303 119.351 72.0222 120.279C69.2284 121.208 66.0334 121.672 62.4372 121.672H38.4964V60.9878H60.5461Z" fill="#0CA49D"/>
<path d="M127.454 73.3993C127.031 74.0634 126.593 74.5687 126.126 74.9008C125.674 75.2328 125.075 75.3917 124.346 75.3917C123.703 75.3917 123.017 75.1895 122.273 74.7853C121.543 74.3955 120.697 73.9479 119.763 73.4426C118.829 72.9518 117.763 72.5042 116.552 72.1C115.355 71.6957 113.983 71.4936 112.451 71.4936C109.794 71.4936 107.81 72.0567 106.511 73.1828C105.212 74.2944 104.569 75.8103 104.569 77.716C104.569 78.9288 104.963 79.9394 105.737 80.7334C106.525 81.5419 107.547 82.2349 108.817 82.8124C110.101 83.3899 111.546 83.924 113.18 84.4005C114.815 84.8913 116.479 85.4255 118.187 86.0174C119.894 86.6238 121.558 87.3168 123.193 88.1108C124.827 88.9193 126.287 89.9443 127.556 91.1859C128.826 92.4275 129.863 93.9434 130.636 95.7192C131.424 97.495 131.818 99.6461 131.818 102.158C131.818 104.959 131.322 107.572 130.344 109.998C129.366 112.423 127.951 114.545 126.097 116.364C124.229 118.169 121.937 119.584 119.223 120.623C116.494 121.663 113.399 122.183 109.94 122.183C108.028 122.183 106.102 121.98 104.132 121.605C102.161 121.215 100.249 120.667 98.4103 119.959C96.5568 119.252 94.8346 118.429 93.2145 117.462C91.5945 116.494 90.1788 115.412 88.982 114.228L93.1708 107.673C93.5064 107.211 93.9443 106.807 94.4843 106.489C95.0389 106.172 95.6227 106.013 96.2649 106.013C97.1114 106.013 97.9579 106.287 98.8044 106.807C99.6509 107.327 100.629 107.904 101.694 108.539C102.774 109.175 104.015 109.767 105.401 110.286C106.802 110.806 108.452 111.08 110.349 111.08C112.918 111.08 114.917 110.517 116.348 109.391C117.778 108.28 118.478 106.504 118.478 104.064C118.478 102.664 118.084 101.509 117.311 100.628C116.523 99.7472 115.501 99.0109 114.231 98.4334C112.962 97.8559 111.517 97.3362 109.897 96.9031C108.277 96.4555 106.613 95.9647 104.905 95.4305C103.197 94.8963 101.534 94.2322 99.9136 93.4381C98.2936 92.6585 96.8487 91.6191 95.5789 90.3341C94.3092 89.0492 93.2729 87.4467 92.4994 85.5266C91.7113 83.6064 91.3172 81.2387 91.3172 78.4235C91.3172 76.1568 91.7842 73.9479 92.7037 71.7824C93.6232 69.6312 94.9805 67.7111 96.7757 66.0219C98.5563 64.3472 100.76 62.9901 103.358 61.9939C105.956 60.9833 108.933 60.478 112.276 60.478C114.158 60.478 115.983 60.6224 117.749 60.9111C119.529 61.1999 121.208 61.633 122.799 62.1961C124.389 62.7591 125.878 63.4377 127.265 64.2317C128.651 65.0113 129.877 65.9064 130.972 66.9026L127.454 73.3993Z" fill="#0CA49D"/>
<path d="M155.965 37.516C155.922 37.0058 155.863 36.4956 155.79 36C159.085 39.3964 163.778 41.3789 168.866 41.0582C171.3 40.9124 173.574 40.2419 175.6 39.1632C174.026 41.9182 173.21 45.1251 173.428 48.5215C173.691 52.7197 175.484 56.4513 178.224 59.2209C176.825 58.944 175.367 58.8274 173.866 58.9294C167.918 59.3084 162.889 62.7485 160.236 67.6172C159.187 60.4163 153.589 54.8187 146.607 53.5943C152.511 50.7081 156.403 44.4692 155.965 37.516Z" fill="#F9AD3C"/>
<path d="M185.176 173.283L182.497 166.342C182.417 166.136 182.334 165.898 182.247 165.628C182.159 165.35 182.076 165.056 181.997 164.747C181.83 165.39 181.659 165.925 181.485 166.354L178.806 173.283H185.176ZM189.985 179.617H188.2C187.993 179.617 187.827 179.565 187.7 179.462C187.573 179.359 187.477 179.228 187.414 179.069L185.818 174.95H178.163L176.568 179.069C176.52 179.212 176.429 179.339 176.294 179.45C176.159 179.561 175.992 179.617 175.794 179.617H174.008L180.83 162.556H183.164L189.985 179.617Z" fill="#F8AD3C"/>
<path d="M175.258 164.497H169.734V179.617H167.436V164.497H161.9V162.556H175.258V164.497Z" fill="#F8AD3C"/>
<path d="M154.078 170.819C154.744 170.819 155.332 170.739 155.84 170.581C156.356 170.414 156.784 170.184 157.125 169.89C157.475 169.588 157.737 169.231 157.911 168.818C158.086 168.406 158.173 167.949 158.173 167.449C158.173 166.433 157.84 165.667 157.173 165.152C156.506 164.636 155.506 164.378 154.173 164.378H151.649V170.819H154.078ZM161.959 179.617H159.911C159.491 179.617 159.181 179.454 158.983 179.129L154.554 173.033C154.419 172.843 154.272 172.708 154.113 172.628C153.963 172.541 153.724 172.497 153.399 172.497H151.649V179.617H149.351V162.556H154.173C155.252 162.556 156.185 162.667 156.971 162.89C157.756 163.104 158.403 163.417 158.911 163.83C159.427 164.243 159.808 164.743 160.054 165.33C160.3 165.91 160.423 166.56 160.423 167.283C160.423 167.886 160.328 168.449 160.138 168.973C159.947 169.497 159.669 169.969 159.304 170.39C158.947 170.803 158.507 171.156 157.983 171.45C157.467 171.743 156.879 171.966 156.221 172.116C156.514 172.283 156.768 172.525 156.983 172.843L161.959 179.617Z" fill="#F8AD3C"/>
<path d="M142.297 173.283L139.618 166.342C139.539 166.136 139.455 165.898 139.368 165.628C139.281 165.35 139.197 165.056 139.118 164.747C138.951 165.39 138.781 165.925 138.606 166.354L135.927 173.283H142.297ZM147.107 179.617H145.321C145.115 179.617 144.948 179.565 144.821 179.462C144.694 179.359 144.599 179.228 144.535 179.069L142.94 174.95H135.285L133.689 179.069C133.642 179.212 133.55 179.339 133.415 179.45C133.28 179.561 133.114 179.617 132.915 179.617H131.129L137.951 162.556H140.285L147.107 179.617Z" fill="#F8AD3C"/>
<path d="M119.769 170.033H120.638C120.94 170.033 121.182 169.997 121.364 169.926C121.547 169.846 121.714 169.715 121.864 169.533L127.543 163.104C127.702 162.897 127.869 162.755 128.043 162.675C128.218 162.596 128.432 162.556 128.686 162.556H130.639L124.138 169.902C123.98 170.092 123.825 170.251 123.674 170.378C123.531 170.497 123.376 170.596 123.21 170.676C123.424 170.747 123.618 170.854 123.793 170.997C123.968 171.132 124.138 171.311 124.305 171.533L131.091 179.617H129.091C128.94 179.617 128.809 179.609 128.698 179.593C128.595 179.569 128.504 179.537 128.424 179.498C128.345 179.45 128.273 179.399 128.21 179.343C128.154 179.28 128.099 179.208 128.043 179.129L122.162 172.354C122.003 172.156 121.833 172.017 121.65 171.938C121.467 171.85 121.19 171.807 120.817 171.807H119.769V179.617H117.471V162.556H119.769V170.033Z" fill="#F8AD3C"/>
<path d="M110.417 173.283L107.738 166.342C107.659 166.136 107.575 165.898 107.488 165.628C107.401 165.35 107.317 165.056 107.238 164.747C107.071 165.39 106.901 165.925 106.726 166.354L104.047 173.283H110.417ZM115.227 179.617H113.441C113.235 179.617 113.068 179.565 112.941 179.462C112.814 179.359 112.719 179.228 112.655 179.069L111.06 174.95H103.405L101.809 179.069C101.762 179.212 101.67 179.339 101.535 179.45C101.4 179.561 101.234 179.617 101.035 179.617H99.2495L106.071 162.556H108.405L115.227 179.617Z" fill="#F8AD3C"/>
<path d="M94.5775 172.819V179.617H92.2678V172.819L86.0174 162.556H88.0413C88.2477 162.556 88.4104 162.608 88.5294 162.711C88.6485 162.806 88.7517 162.933 88.839 163.092L92.744 169.723C92.8869 170.001 93.0178 170.263 93.1369 170.509C93.256 170.747 93.3591 170.989 93.4464 171.235C93.5338 170.989 93.633 170.747 93.7441 170.509C93.8552 170.263 93.9782 170.001 94.1132 169.723L98.0063 163.092C98.0777 162.957 98.1769 162.834 98.3039 162.723C98.4309 162.612 98.5936 162.556 98.792 162.556H100.828L94.5775 172.819Z" fill="#F8AD3C"/>
<path d="M85.0324 171.414V177.962C84.1752 178.581 83.2584 179.045 82.2822 179.355C81.3139 179.657 80.2503 179.807 79.0915 179.807C77.7184 179.807 76.4802 179.597 75.3769 179.176C74.2737 178.748 73.3292 178.153 72.5434 177.391C71.7656 176.621 71.1663 175.7 70.7457 174.628C70.325 173.557 70.1147 172.378 70.1147 171.093C70.1147 169.791 70.3171 168.604 70.7219 167.533C71.1346 166.461 71.718 165.545 72.472 164.783C73.226 164.013 74.1427 163.417 75.2222 162.997C76.3016 162.576 77.508 162.366 78.8415 162.366C79.5161 162.366 80.1431 162.417 80.7226 162.52C81.302 162.616 81.8377 162.759 82.3298 162.949C82.8219 163.132 83.2783 163.358 83.6989 163.628C84.1196 163.89 84.5125 164.187 84.8776 164.521L84.2228 165.568C84.1196 165.727 83.9847 165.83 83.818 165.878C83.6593 165.918 83.4807 165.878 83.2822 165.759C83.0918 165.648 82.8735 165.513 82.6274 165.354C82.3814 165.195 82.0798 165.044 81.7226 164.902C81.3734 164.751 80.9567 164.624 80.4725 164.521C79.9963 164.417 79.4288 164.366 78.77 164.366C77.8097 164.366 76.9405 164.525 76.1627 164.842C75.3849 165.152 74.7221 165.6 74.1745 166.187C73.6268 166.767 73.2062 167.473 72.9125 168.307C72.6188 169.132 72.472 170.061 72.472 171.093C72.472 172.164 72.6228 173.124 72.9244 173.974C73.2339 174.815 73.6705 175.533 74.234 176.129C74.8055 176.716 75.496 177.164 76.3056 177.474C77.1152 177.783 78.024 177.938 79.032 177.938C79.8257 177.938 80.5281 177.851 81.1392 177.676C81.7583 177.494 82.3616 177.244 82.9489 176.926V173.176H80.294C80.1431 173.176 80.0201 173.132 79.9249 173.045C79.8376 172.958 79.7939 172.851 79.7939 172.724V171.414H85.0324Z" fill="#F8AD3C"/>
<path d="M67.8697 171.093C67.8697 172.37 67.6674 173.545 67.2626 174.617C66.8578 175.68 66.2863 176.597 65.5482 177.367C64.81 178.137 63.9211 178.736 62.8813 179.164C61.8495 179.585 60.7066 179.795 59.4525 179.795C58.1984 179.795 57.0555 179.585 56.0237 179.164C54.9919 178.736 54.1069 178.137 53.3688 177.367C52.6306 176.597 52.0591 175.68 51.6543 174.617C51.2496 173.545 51.0472 172.37 51.0472 171.093C51.0472 169.815 51.2496 168.644 51.6543 167.58C52.0591 166.509 52.6306 165.588 53.3688 164.818C54.1069 164.04 54.9919 163.437 56.0237 163.009C57.0555 162.58 58.1984 162.366 59.4525 162.366C60.7066 162.366 61.8495 162.58 62.8813 163.009C63.9211 163.437 64.81 164.04 65.5482 164.818C66.2863 165.588 66.8578 166.509 67.2626 167.58C67.6674 168.644 67.8697 169.815 67.8697 171.093ZM65.5005 171.093C65.5005 170.045 65.3577 169.104 65.0719 168.271C64.7862 167.437 64.3814 166.735 63.8576 166.164C63.3337 165.584 62.6988 165.14 61.9527 164.83C61.2066 164.521 60.3732 164.366 59.4525 164.366C58.5397 164.366 57.7103 164.521 56.9642 164.83C56.2182 165.14 55.5792 165.584 55.0474 166.164C54.5236 166.735 54.1188 167.437 53.8331 168.271C53.5473 169.104 53.4045 170.045 53.4045 171.093C53.4045 172.14 53.5473 173.081 53.8331 173.914C54.1188 174.74 54.5236 175.442 55.0474 176.021C55.5792 176.593 56.2182 177.033 56.9642 177.343C57.7103 177.645 58.5397 177.795 59.4525 177.795C60.3732 177.795 61.2066 177.645 61.9527 177.343C62.6988 177.033 63.3337 176.593 63.8576 176.021C64.3814 175.442 64.7862 174.74 65.0719 173.914C65.3577 173.081 65.5005 172.14 65.5005 171.093Z" fill="#F8AD3C"/>
<path d="M44.5601 172.819V179.617H42.2504V172.819L36 162.556H38.0239C38.2303 162.556 38.393 162.608 38.5121 162.711C38.6311 162.806 38.7343 162.933 38.8216 163.092L42.7267 169.723C42.8695 170.001 43.0005 170.263 43.1195 170.509C43.2386 170.747 43.3418 170.989 43.4291 171.235C43.5164 170.989 43.6156 170.747 43.7267 170.509C43.8378 170.263 43.9609 170.001 44.0958 169.723L47.9889 163.092C48.0603 162.957 48.1596 162.834 48.2866 162.723C48.4135 162.612 48.5763 162.556 48.7747 162.556H50.8105L44.5601 172.819Z" fill="#F8AD3C"/>
<path d="M202.119 141.23C202.785 141.23 203.373 141.151 203.881 140.992C204.396 140.825 204.825 140.595 205.166 140.302C205.516 140 205.777 139.643 205.952 139.23C206.127 138.817 206.214 138.361 206.214 137.861C206.214 136.845 205.881 136.079 205.214 135.563C204.547 135.047 203.547 134.789 202.214 134.789H199.69V141.23H202.119ZM210 150.028H207.952C207.532 150.028 207.222 149.866 207.024 149.54L202.595 143.445C202.46 143.254 202.313 143.119 202.154 143.04C202.003 142.953 201.765 142.909 201.44 142.909H199.69V150.028H197.392V132.968H202.214C203.293 132.968 204.226 133.079 205.012 133.301C205.797 133.515 206.444 133.829 206.952 134.242C207.468 134.654 207.849 135.154 208.095 135.742C208.341 136.321 208.464 136.972 208.464 137.694C208.464 138.298 208.369 138.861 208.178 139.385C207.988 139.909 207.71 140.381 207.345 140.802C206.988 141.214 206.547 141.568 206.024 141.861C205.508 142.155 204.92 142.377 204.262 142.528C204.555 142.695 204.809 142.937 205.023 143.254L210 150.028Z" fill="#F8AD3C"/>
<path d="M194.174 148.147L194.162 150.028H183.649V132.968H194.162V134.849H185.959V140.516H192.602V142.326H185.959V148.147H194.174Z" fill="#F8AD3C"/>
<path d="M181.118 134.908H175.594V150.028H173.296V134.908H167.76V132.968H181.118V134.908Z" fill="#F8AD3C"/>
<path d="M165.22 132.968V150.028H164.065C163.882 150.028 163.728 149.997 163.601 149.933C163.482 149.87 163.362 149.763 163.243 149.612L153.374 136.754C153.39 136.952 153.401 137.147 153.409 137.337C153.417 137.528 153.421 137.706 153.421 137.873V150.028H151.397V132.968H152.588C152.691 132.968 152.778 132.976 152.85 132.992C152.921 133 152.985 133.019 153.04 133.051C153.096 133.075 153.151 133.115 153.207 133.17C153.263 133.218 153.322 133.281 153.386 133.361L163.255 146.207C163.239 146 163.224 145.802 163.208 145.611C163.2 145.413 163.196 145.227 163.196 145.052V132.968H165.22Z" fill="#F8AD3C"/>
<path d="M148.179 148.147L148.167 150.028H137.655V132.968H148.167V134.849H139.964V140.516H146.608V142.326H139.964V148.147H148.179Z" fill="#F8AD3C"/>
<path d="M133.727 146.504C133.854 146.504 133.965 146.556 134.06 146.659L134.977 147.647C134.278 148.457 133.429 149.088 132.429 149.54C131.437 149.993 130.234 150.219 128.822 150.219C127.599 150.219 126.488 150.009 125.488 149.588C124.488 149.159 123.635 148.564 122.928 147.802C122.222 147.032 121.674 146.112 121.285 145.04C120.896 143.969 120.702 142.79 120.702 141.504C120.702 140.218 120.904 139.04 121.309 137.968C121.714 136.897 122.281 135.976 123.012 135.206C123.75 134.436 124.631 133.841 125.655 133.42C126.679 132.992 127.81 132.777 129.048 132.777C130.262 132.777 131.334 132.972 132.262 133.361C133.191 133.75 134.008 134.277 134.715 134.944L133.953 136.004C133.905 136.083 133.842 136.151 133.762 136.206C133.691 136.254 133.592 136.278 133.465 136.278C133.322 136.278 133.147 136.202 132.941 136.051C132.735 135.893 132.465 135.718 132.131 135.528C131.798 135.337 131.381 135.166 130.881 135.016C130.381 134.857 129.766 134.777 129.036 134.777C128.155 134.777 127.349 134.932 126.619 135.242C125.889 135.543 125.258 135.984 124.726 136.563C124.202 137.143 123.794 137.849 123.5 138.683C123.206 139.516 123.059 140.456 123.059 141.504C123.059 142.568 123.21 143.516 123.512 144.35C123.821 145.183 124.238 145.889 124.762 146.469C125.294 147.04 125.917 147.477 126.631 147.778C127.353 148.08 128.131 148.231 128.964 148.231C129.472 148.231 129.929 148.203 130.334 148.147C130.746 148.084 131.123 147.989 131.465 147.862C131.814 147.735 132.135 147.576 132.429 147.385C132.731 147.187 133.028 146.953 133.322 146.683C133.457 146.564 133.592 146.504 133.727 146.504Z" fill="#F8AD3C"/>
<path d="M111.295 132.968V150.028H109.271V137.492C109.271 137.325 109.275 137.147 109.283 136.956C109.299 136.766 109.315 136.571 109.331 136.373L103.473 147.04C103.29 147.397 103.013 147.576 102.64 147.576H102.306C101.933 147.576 101.655 147.397 101.473 147.04L95.4962 136.325C95.5439 136.746 95.5677 137.135 95.5677 137.492V150.028H93.5437V132.968H95.2462C95.4526 132.968 95.6113 132.988 95.7225 133.027C95.8336 133.067 95.9407 133.178 96.0439 133.361L101.937 143.861C102.032 144.052 102.124 144.25 102.211 144.457C102.306 144.663 102.394 144.873 102.473 145.088C102.552 144.873 102.636 144.663 102.723 144.457C102.81 144.242 102.905 144.04 103.009 143.849L108.795 133.361C108.89 133.178 108.993 133.067 109.104 133.027C109.223 132.988 109.386 132.968 109.592 132.968H111.295Z" fill="#F8AD3C"/>
<path d="M80.0759 140.444H80.945C81.2466 140.444 81.4887 140.409 81.6713 140.337C81.8538 140.258 82.0205 140.127 82.1713 139.944L87.8503 133.515C88.009 133.309 88.1757 133.166 88.3503 133.087C88.5249 133.007 88.7392 132.968 88.9932 132.968H90.9457L84.4453 140.314C84.2865 140.504 84.1317 140.663 83.9809 140.79C83.8381 140.909 83.6833 141.008 83.5166 141.087C83.7309 141.159 83.9254 141.266 84.1 141.409C84.2746 141.544 84.4453 141.722 84.6119 141.945L91.3981 150.028H89.398C89.2472 150.028 89.1162 150.021 89.0051 150.005C88.9019 149.981 88.8106 149.949 88.7313 149.909C88.6519 149.862 88.5805 149.81 88.517 149.755C88.4614 149.691 88.4058 149.62 88.3503 149.54L82.4689 142.766C82.3102 142.568 82.1395 142.429 81.957 142.349C81.7744 142.262 81.4966 142.218 81.1236 142.218H80.0759V150.028H77.7781V132.968H80.0759V140.444Z" fill="#F8AD3C"/>
<path d="M73.4157 132.968V150.028H71.3918V137.492C71.3918 137.325 71.3957 137.147 71.4037 136.956C71.4195 136.766 71.4354 136.571 71.4513 136.373L65.5937 147.04C65.4112 147.397 65.1334 147.576 64.7603 147.576H64.427C64.054 147.576 63.7762 147.397 63.5936 147.04L57.617 136.325C57.6646 136.746 57.6884 137.135 57.6884 137.492V150.028H55.6645V132.968H57.367C57.5734 132.968 57.7321 132.988 57.8432 133.027C57.9543 133.067 58.0615 133.178 58.1647 133.361L64.0579 143.861C64.1532 144.052 64.2444 144.25 64.3317 144.457C64.427 144.663 64.5143 144.873 64.5937 145.088C64.673 144.873 64.7564 144.663 64.8437 144.457C64.931 144.242 65.0262 144.04 65.1294 143.849L70.9155 133.361C71.0108 133.178 71.114 133.067 71.2251 133.027C71.3441 132.988 71.5068 132.968 71.7132 132.968H73.4157Z" fill="#F8AD3C"/>
<path d="M44.7387 148.195C45.4451 148.195 46.0761 148.076 46.6317 147.838C47.1873 147.6 47.6556 147.266 48.0365 146.838C48.4254 146.409 48.7191 145.897 48.9175 145.302C49.1239 144.707 49.2271 144.052 49.2271 143.338V132.968H51.5249V143.338C51.5249 144.322 51.3661 145.234 51.0486 146.076C50.7391 146.917 50.2907 147.647 49.7033 148.266C49.1239 148.878 48.4135 149.358 47.5722 149.707C46.7309 150.056 45.7864 150.231 44.7387 150.231C43.691 150.231 42.7465 150.056 41.9052 149.707C41.0638 149.358 40.3495 148.878 39.7622 148.266C39.1748 147.647 38.7224 146.917 38.4049 146.076C38.0954 145.234 37.9406 144.322 37.9406 143.338V132.968H40.2384V143.326C40.2384 144.04 40.3376 144.695 40.536 145.29C40.7424 145.885 41.0361 146.397 41.417 146.826C41.8059 147.254 42.2782 147.592 42.8338 147.838C43.3973 148.076 44.0323 148.195 44.7387 148.195Z" fill="#F8AD3C"/>
</g>
<defs>
<filter id="filter0_d_74_3865" x="0" y="0" width="246" height="215.808" filterUnits="userSpaceOnUse" color-interpolation-filters="sRGB">
<feFlood flood-opacity="0" result="BackgroundImageFix"/>
<feColorMatrix in="SourceAlpha" type="matrix" values="0 0 0 0 0 0 0 0 0 0 0 0 0 0 0 0 0 0 127 0" result="hardAlpha"/>
<feOffset/>
<feGaussianBlur stdDeviation="18"/>
<feComposite in2="hardAlpha" operator="out"/>
<feColorMatrix type="matrix" values="0 0 0 0 1 0 0 0 0 1 0 0 0 0 1 0 0 0 0.5 0"/>
<feBlend mode="normal" in2="BackgroundImageFix" result="effect1_dropShadow_74_3865"/>
<feBlend mode="normal" in="SourceGraphic" in2="effect1_dropShadow_74_3865" result="shape"/>
</filter>
</defs>
</svg>
