<svg width="435" height="127" viewBox="0 0 435 127" fill="none" xmlns="http://www.w3.org/2000/svg">
<path d="M147.168 36.248H147.02V36.2692C147.062 36.2692 147.105 36.248 147.168 36.248Z" fill="#168F8C"/>
<path d="M148.161 34.8328V125.411H169.453V57.5196C169.453 52.4499 166.75 37.1353 148.161 34.8328Z" fill="#0CA49D"/>
<path d="M34.9384 109.653C37.6422 109.653 39.8602 109.315 41.5923 108.618C43.3033 107.942 44.6553 107.033 45.6269 105.956C46.5775 104.857 47.2535 103.632 47.6126 102.259C47.9717 100.886 48.1618 99.4921 48.1618 98.0768C48.1618 96.4503 47.9505 94.9928 47.5281 93.7043C47.1056 92.4157 46.3663 91.3173 45.3523 90.4301C44.3173 89.5429 42.9442 88.8458 41.2544 88.36C39.5434 87.8741 37.4099 87.6418 34.8117 87.6418H20.511V109.653H34.9384ZM20.511 52.1119V73.9326H31.1784C33.4386 73.9326 35.4876 73.7847 37.3043 73.4467C39.1209 73.1299 40.6629 72.5595 41.9514 71.7568C43.2189 70.9541 44.1905 69.8346 44.8665 68.4193C45.5213 67.004 45.8593 65.2297 45.8593 63.075C45.8593 60.9838 45.5847 59.2306 45.0777 57.8364C44.5496 56.4422 43.7258 55.3227 42.6485 54.4777C41.5501 53.6328 40.1559 53.0202 38.4872 52.6611C36.8184 52.302 34.8117 52.1119 32.5092 52.1119H20.511ZM32.5092 36.7762C38.6139 36.7762 43.8103 37.3465 48.0984 38.4661C52.3865 39.6067 55.893 41.191 58.5968 43.2611C61.3006 45.3101 63.2863 47.8238 64.5114 50.7811C65.7366 53.7173 66.3703 57.0126 66.3703 60.667C66.3703 62.6315 66.0746 64.5537 65.5042 66.3914C64.955 68.2292 64.0467 69.9402 62.8427 71.5456C61.6386 73.1299 60.0755 74.6085 58.1744 75.9393C56.2732 77.2701 53.9919 78.4319 51.3092 79.4036C57.1393 80.8189 61.4485 83.1002 64.2368 86.2476C67.0251 89.395 68.4193 93.493 68.4193 98.4993C68.4193 102.259 67.7011 105.745 66.2436 108.977C64.786 112.209 62.6526 115.039 59.8431 117.447C57.0337 119.855 53.5694 121.735 49.4292 123.087C45.3101 124.439 40.5995 125.115 35.2975 125.115H0V36.7762H32.5092Z" fill="#0CA49D"/>
<path d="M130.058 54.7101C129.445 55.6817 128.812 56.4211 128.136 56.9069C127.481 57.3927 126.615 57.6251 125.559 57.6251C124.629 57.6251 123.636 57.3294 122.559 56.7379C121.503 56.1676 120.278 55.5127 118.926 54.7734C117.574 54.0552 116.032 53.4004 114.279 52.8089C112.546 52.2175 110.561 51.9217 108.343 51.9217C104.498 51.9217 101.626 52.7456 99.7455 54.3932C97.8655 56.0197 96.9361 58.2377 96.9361 61.026C96.9361 62.8004 97.5064 64.279 98.626 65.4408C99.7666 66.6238 101.245 67.6377 103.083 68.4826C104.942 69.3276 107.033 70.1091 109.399 70.8062C111.765 71.5244 114.173 72.306 116.644 73.1721C119.116 74.0593 121.524 75.0732 123.89 76.235C126.256 77.4179 128.368 78.9177 130.206 80.7343C132.043 82.5509 133.543 84.7689 134.663 87.3671C135.803 89.9653 136.374 93.1127 136.374 96.7882C136.374 100.886 135.656 104.71 134.24 108.258C132.825 111.807 130.776 114.912 128.093 117.574C125.39 120.214 122.073 122.284 118.144 123.805C114.194 125.326 109.716 126.087 104.71 126.087C101.942 126.087 99.1541 125.791 96.3024 125.242C93.4507 124.671 90.6835 123.869 88.0219 122.834C85.3392 121.799 82.8467 120.595 80.5019 119.179C78.1572 117.764 76.1082 116.18 74.3761 114.448L80.4386 104.857C80.9244 104.181 81.5581 103.59 82.3397 103.125C83.1424 102.661 83.9873 102.428 84.9168 102.428C86.1419 102.428 87.3671 102.83 88.5923 103.59C89.8174 104.35 91.2327 105.195 92.7747 106.125C94.3379 107.054 96.1334 107.92 98.1401 108.681C100.168 109.441 102.555 109.843 105.301 109.843C109.019 109.843 111.913 109.019 113.983 107.371C116.053 105.745 117.067 103.146 117.067 99.5765C117.067 97.5276 116.497 95.8377 115.377 94.5491C114.236 93.2606 112.758 92.1833 110.92 91.3384C109.082 90.4934 106.991 89.733 104.646 89.0992C102.301 88.4444 99.8934 87.7262 97.4219 86.9446C94.9505 86.1631 92.5424 85.1914 90.1977 84.0296C87.8529 82.8889 85.7617 81.368 83.924 79.488C82.0862 77.608 80.5864 75.2633 79.4669 72.4539C78.3262 69.6444 77.7559 66.1802 77.7559 62.0611C77.7559 58.7447 78.4318 55.5127 79.7626 52.3442C81.0934 49.1968 83.0579 46.3874 85.6561 43.9159C88.2332 41.4656 91.4228 39.4799 95.1828 38.0224C98.9428 36.5438 103.252 35.8044 108.089 35.8044C110.814 35.8044 113.455 36.0157 116.011 36.4382C118.588 36.8606 121.017 37.4943 123.319 38.3182C125.622 39.142 127.777 40.1348 129.783 41.2966C131.79 42.4372 133.564 43.7469 135.149 45.2044L130.058 54.7101Z" fill="#0CA49D"/>
<path d="M171.798 2.19685C171.735 1.45753 171.65 0.718202 171.545 0C176.319 4.9218 183.12 7.7946 190.493 7.32989C194.02 7.11865 197.315 6.14696 200.252 4.58382C197.97 8.57618 196.787 13.2234 197.104 18.1452C197.484 24.2288 200.083 29.6364 204.054 33.6499C202.026 33.2485 199.914 33.0795 197.738 33.2274C189.12 33.7766 181.832 38.7618 177.987 45.8171C176.466 35.382 168.355 27.2705 158.237 25.4962C166.792 21.3137 172.432 12.2728 171.798 2.19685Z" fill="#F9AD3C"/>
<path d="M398.771 116.314L394.862 106.185C394.746 105.883 394.624 105.536 394.497 105.142C394.369 104.737 394.248 104.308 394.132 103.856C393.889 104.795 393.64 105.576 393.385 106.202L389.475 116.314H398.771ZM405.791 125.558H403.184C402.883 125.558 402.64 125.482 402.455 125.332C402.269 125.181 402.13 124.99 402.038 124.758L399.709 118.747H388.537L386.209 124.758C386.139 124.967 386.006 125.152 385.809 125.314C385.612 125.477 385.369 125.558 385.08 125.558H382.473L392.429 100.659H395.835L405.791 125.558Z" fill="#F8AD3C"/>
<path d="M384.297 103.491H376.235V125.558H372.882V103.491H364.803V100.659H384.297V103.491Z" fill="#F8AD3C"/>
<path d="M353.387 112.718C354.36 112.718 355.217 112.602 355.958 112.37C356.711 112.127 357.337 111.791 357.835 111.362C358.344 110.922 358.727 110.401 358.981 109.799C359.236 109.196 359.364 108.53 359.364 107.8C359.364 106.318 358.877 105.2 357.904 104.447C356.931 103.694 355.472 103.318 353.526 103.318H349.842V112.718H353.387ZM364.889 125.558H361.9C361.287 125.558 360.835 125.32 360.545 124.845L354.082 115.949C353.885 115.671 353.67 115.474 353.439 115.359C353.219 115.231 352.871 115.167 352.396 115.167H349.842V125.558H346.489V100.659H353.526C355.101 100.659 356.462 100.821 357.609 101.146C358.756 101.459 359.7 101.916 360.441 102.518C361.194 103.121 361.75 103.851 362.109 104.708C362.468 105.553 362.648 106.503 362.648 107.557C362.648 108.438 362.509 109.26 362.231 110.024C361.953 110.789 361.547 111.478 361.014 112.092C360.493 112.694 359.85 113.21 359.086 113.638C358.333 114.067 357.476 114.391 356.514 114.611C356.943 114.855 357.313 115.208 357.626 115.671L364.889 125.558Z" fill="#F8AD3C"/>
<path d="M336.194 116.314L332.284 106.185C332.169 105.883 332.047 105.536 331.92 105.142C331.792 104.737 331.67 104.308 331.555 103.856C331.311 104.795 331.062 105.576 330.808 106.202L326.898 116.314H336.194ZM343.213 125.558H340.607C340.306 125.558 340.063 125.482 339.877 125.332C339.692 125.181 339.553 124.99 339.46 124.758L337.132 118.747H325.96L323.632 124.758C323.562 124.967 323.429 125.152 323.232 125.314C323.035 125.477 322.792 125.558 322.502 125.558H319.896L329.852 100.659H333.257L343.213 125.558Z" fill="#F8AD3C"/>
<path d="M303.316 111.571H304.585C305.025 111.571 305.378 111.519 305.645 111.414C305.911 111.299 306.154 111.107 306.374 110.841L314.662 101.459C314.894 101.157 315.137 100.949 315.392 100.833C315.647 100.717 315.96 100.659 316.33 100.659H319.18L309.693 111.38C309.461 111.658 309.236 111.889 309.015 112.075C308.807 112.248 308.581 112.393 308.338 112.509C308.651 112.613 308.934 112.77 309.189 112.978C309.444 113.175 309.693 113.436 309.936 113.76L319.84 125.558H316.921C316.701 125.558 316.51 125.546 316.348 125.523C316.197 125.488 316.064 125.442 315.948 125.384C315.832 125.314 315.728 125.239 315.635 125.158C315.554 125.065 315.473 124.961 315.392 124.845L306.809 114.959C306.577 114.669 306.328 114.467 306.062 114.351C305.795 114.223 305.39 114.16 304.845 114.16H303.316V125.558H299.963V100.659H303.316V111.571Z" fill="#F8AD3C"/>
<path d="M289.668 116.314L285.759 106.185C285.643 105.883 285.521 105.536 285.394 105.142C285.266 104.737 285.145 104.308 285.029 103.856C284.786 104.795 284.537 105.576 284.282 106.202L280.372 116.314H289.668ZM296.688 125.558H294.081C293.78 125.558 293.537 125.482 293.352 125.332C293.166 125.181 293.027 124.99 292.935 124.758L290.606 118.747H279.434L277.106 124.758C277.036 124.967 276.903 125.152 276.706 125.314C276.509 125.477 276.266 125.558 275.977 125.558H273.37L283.326 100.659H286.732L296.688 125.558Z" fill="#F8AD3C"/>
<path d="M266.552 115.637V125.558H263.181V115.637L254.059 100.659H257.013C257.314 100.659 257.552 100.735 257.725 100.885C257.899 101.024 258.05 101.21 258.177 101.441L263.876 111.119C264.085 111.524 264.276 111.907 264.45 112.266C264.623 112.613 264.774 112.967 264.901 113.326C265.029 112.967 265.174 112.613 265.336 112.266C265.498 111.907 265.677 111.524 265.874 111.119L271.556 101.441C271.66 101.244 271.805 101.065 271.99 100.903C272.176 100.74 272.413 100.659 272.703 100.659H275.674L266.552 115.637Z" fill="#F8AD3C"/>
<path d="M252.622 113.586V123.143C251.371 124.046 250.033 124.724 248.608 125.175C247.195 125.616 245.643 125.836 243.952 125.836C241.948 125.836 240.141 125.529 238.531 124.915C236.921 124.289 235.542 123.421 234.395 122.309C233.26 121.185 232.386 119.841 231.772 118.278C231.158 116.714 230.851 114.994 230.851 113.117C230.851 111.217 231.146 109.486 231.737 107.922C232.339 106.358 233.191 105.02 234.291 103.908C235.392 102.785 236.729 101.916 238.305 101.302C239.88 100.688 241.641 100.381 243.587 100.381C244.571 100.381 245.486 100.457 246.332 100.607C247.178 100.746 247.959 100.955 248.678 101.233C249.396 101.499 250.062 101.829 250.676 102.223C251.29 102.605 251.863 103.04 252.396 103.526L251.44 105.055C251.29 105.287 251.093 105.437 250.85 105.507C250.618 105.565 250.357 105.507 250.068 105.333C249.79 105.171 249.471 104.974 249.112 104.742C248.753 104.511 248.313 104.291 247.791 104.082C247.282 103.862 246.674 103.677 245.967 103.526C245.272 103.376 244.444 103.3 243.482 103.3C242.081 103.3 240.813 103.532 239.677 103.995C238.542 104.447 237.575 105.101 236.776 105.959C235.976 106.804 235.363 107.835 234.934 109.051C234.505 110.256 234.291 111.611 234.291 113.117C234.291 114.681 234.511 116.082 234.951 117.322C235.403 118.55 236.04 119.598 236.863 120.467C237.697 121.324 238.704 121.978 239.886 122.43C241.067 122.882 242.394 123.108 243.865 123.108C245.023 123.108 246.048 122.98 246.94 122.726C247.844 122.459 248.724 122.094 249.581 121.631V116.158H245.706C245.486 116.158 245.307 116.094 245.168 115.967C245.04 115.839 244.977 115.683 244.977 115.498V113.586H252.622Z" fill="#F8AD3C"/>
<path d="M227.575 113.117C227.575 114.982 227.279 116.696 226.688 118.26C226.098 119.812 225.264 121.15 224.186 122.274C223.109 123.397 221.812 124.272 220.294 124.897C218.789 125.511 217.121 125.818 215.29 125.818C213.46 125.818 211.792 125.511 210.286 124.897C208.781 124.272 207.489 123.397 206.412 122.274C205.335 121.15 204.5 119.812 203.91 118.26C203.319 116.696 203.024 114.982 203.024 113.117C203.024 111.252 203.319 109.544 203.91 107.991C204.5 106.428 205.335 105.084 206.412 103.96C207.489 102.825 208.781 101.945 210.286 101.319C211.792 100.694 213.46 100.381 215.29 100.381C217.121 100.381 218.789 100.694 220.294 101.319C221.812 101.945 223.109 102.825 224.186 103.96C225.264 105.084 226.098 106.428 226.688 107.991C227.279 109.544 227.575 111.252 227.575 113.117ZM224.117 113.117C224.117 111.588 223.908 110.215 223.491 108.999C223.074 107.783 222.484 106.758 221.719 105.924C220.955 105.078 220.028 104.43 218.939 103.978C217.85 103.526 216.634 103.3 215.29 103.3C213.958 103.3 212.748 103.526 211.659 103.978C210.57 104.43 209.638 105.078 208.862 105.924C208.097 106.758 207.506 107.783 207.089 108.999C206.672 110.215 206.464 111.588 206.464 113.117C206.464 114.646 206.672 116.019 207.089 117.235C207.506 118.44 208.097 119.465 208.862 120.31C209.638 121.144 210.57 121.787 211.659 122.239C212.748 122.679 213.958 122.899 215.29 122.899C216.634 122.899 217.85 122.679 218.939 122.239C220.028 121.787 220.955 121.144 221.719 120.31C222.484 119.465 223.074 118.44 223.491 117.235C223.908 116.019 224.117 114.646 224.117 113.117Z" fill="#F8AD3C"/>
<path d="M193.556 115.637V125.558H190.186V115.637L181.064 100.659H184.017C184.319 100.659 184.556 100.735 184.73 100.885C184.904 101.024 185.054 101.21 185.182 101.441L190.881 111.119C191.089 111.524 191.28 111.907 191.454 112.266C191.628 112.613 191.778 112.967 191.906 113.326C192.033 112.967 192.178 112.613 192.34 112.266C192.502 111.907 192.682 111.524 192.879 111.119L198.56 101.441C198.665 101.244 198.809 101.065 198.995 100.903C199.18 100.74 199.418 100.659 199.707 100.659H202.678L193.556 115.637Z" fill="#F8AD3C"/>
<path d="M423.498 74.8511C424.471 74.8511 425.328 74.7352 426.069 74.5036C426.822 74.2603 427.448 73.9244 427.946 73.4958C428.455 73.0556 428.838 72.5344 429.093 71.9321C429.347 71.3297 429.475 70.6637 429.475 69.9339C429.475 68.4513 428.988 67.3335 428.015 66.5805C427.042 65.8276 425.583 65.4512 423.637 65.4512H419.953V74.8511H423.498ZM435 87.6912H432.012C431.398 87.6912 430.946 87.4538 430.656 86.9788L424.193 78.0828C423.996 77.8048 423.782 77.6079 423.55 77.4921C423.33 77.3647 422.982 77.3009 422.507 77.3009H419.953V87.6912H416.6V62.7928H423.637C425.212 62.7928 426.573 62.955 427.72 63.2793C428.867 63.592 429.811 64.0496 430.552 64.6519C431.305 65.2543 431.861 65.984 432.22 66.8412C432.579 67.6868 432.759 68.6366 432.759 69.6907C432.759 70.571 432.62 71.3934 432.342 72.1579C432.064 72.9224 431.658 73.6116 431.125 74.2256C430.604 74.8279 429.961 75.3434 429.197 75.7719C428.444 76.2005 427.587 76.5249 426.625 76.7449C427.054 76.9882 427.425 77.3415 427.737 77.8048L435 87.6912Z" fill="#F8AD3C"/>
<path d="M411.903 84.946L411.886 87.6912H396.544V62.7928H411.886V65.538H399.915V73.8086H409.61V76.4496H399.915V84.946H411.903Z" fill="#F8AD3C"/>
<path d="M392.849 65.6249H384.787V87.6912H381.434V65.6249H373.354V62.7928H392.849V65.6249Z" fill="#F8AD3C"/>
<path d="M369.648 62.7928V87.6912H367.962C367.696 87.6912 367.47 87.6449 367.285 87.5522C367.111 87.4596 366.937 87.3032 366.763 87.0831L352.359 68.318C352.383 68.6076 352.4 68.8914 352.411 69.1694C352.423 69.4474 352.429 69.7081 352.429 69.9513V87.6912H349.475V62.7928H351.213C351.363 62.7928 351.491 62.8044 351.595 62.8275C351.699 62.8391 351.792 62.8681 351.873 62.9144C351.954 62.9492 352.035 63.0071 352.116 63.0882C352.197 63.1577 352.284 63.2503 352.377 63.3662L366.781 82.1138C366.757 81.8127 366.734 81.5231 366.711 81.2451C366.7 80.9555 366.694 80.6833 366.694 80.4285V62.7928H369.648Z" fill="#F8AD3C"/>
<path d="M344.779 84.946L344.761 87.6912H329.419V62.7928H344.761V65.538H332.79V73.8086H342.485V76.4496H332.79V84.946H344.779Z" fill="#F8AD3C"/>
<path d="M323.687 82.5482C323.872 82.5482 324.034 82.6235 324.173 82.7741L325.511 84.2162C324.492 85.3977 323.252 86.3186 321.793 86.9788C320.345 87.6391 318.59 87.9692 316.528 87.9692C314.744 87.9692 313.122 87.6623 311.663 87.0483C310.203 86.4228 308.958 85.5541 307.927 84.4421C306.896 83.3185 306.097 81.9748 305.53 80.4111C304.962 78.8473 304.678 77.1272 304.678 75.2507C304.678 73.3742 304.974 71.654 305.564 70.0903C306.155 68.5265 306.983 67.1829 308.049 66.0593C309.126 64.9357 310.412 64.0669 311.906 63.453C313.4 62.8275 315.051 62.5148 316.858 62.5148C318.63 62.5148 320.194 62.7986 321.549 63.3661C322.905 63.9337 324.098 64.704 325.129 65.677L324.017 67.2234C323.947 67.3392 323.854 67.4377 323.739 67.5188C323.634 67.5883 323.49 67.623 323.304 67.623C323.096 67.623 322.841 67.513 322.54 67.2929C322.239 67.0612 321.845 66.8064 321.358 66.5284C320.872 66.2504 320.264 66.0014 319.534 65.7813C318.804 65.5496 317.906 65.4338 316.841 65.4338C315.555 65.4338 314.379 65.6597 313.314 66.1114C312.248 66.5516 311.327 67.1944 310.551 68.04C309.786 68.8856 309.19 69.9165 308.761 71.1328C308.333 72.349 308.118 73.7217 308.118 75.2507C308.118 76.8028 308.339 78.1871 308.779 79.4033C309.23 80.6196 309.839 81.6505 310.603 82.4961C311.379 83.3301 312.288 83.9672 313.331 84.4073C314.385 84.8475 315.52 85.0676 316.737 85.0676C317.478 85.0676 318.144 85.027 318.735 84.946C319.337 84.8533 319.887 84.7143 320.385 84.529C320.895 84.3436 321.364 84.1119 321.793 83.834C322.233 83.5444 322.667 83.2027 323.096 82.8088C323.293 82.6351 323.49 82.5482 323.687 82.5482Z" fill="#F8AD3C"/>
<path d="M290.949 62.7928V87.6912H287.996V69.3953C287.996 69.1521 288.001 68.8914 288.013 68.6134C288.036 68.3354 288.059 68.0516 288.083 67.762L279.534 83.3301C279.268 83.8513 278.862 84.112 278.318 84.112H277.831C277.287 84.112 276.881 83.8513 276.615 83.3301L267.893 67.6925C267.962 68.3065 267.997 68.8741 267.997 69.3953V87.6912H265.043V62.7928H267.528C267.829 62.7928 268.061 62.8217 268.223 62.8797C268.385 62.9376 268.541 63.0997 268.692 63.3662L277.293 78.691C277.432 78.969 277.565 79.2585 277.692 79.5597C277.831 79.8609 277.959 80.1678 278.075 80.4806C278.19 80.1678 278.312 79.8609 278.439 79.5597C278.567 79.247 278.706 78.9516 278.856 78.6736L287.301 63.3662C287.44 63.0997 287.59 62.9376 287.752 62.8797C287.926 62.8217 288.164 62.7928 288.465 62.7928H290.949Z" fill="#F8AD3C"/>
<path d="M245.388 73.7043H246.657C247.097 73.7043 247.45 73.6522 247.717 73.5479C247.983 73.4321 248.226 73.241 248.446 72.9746L256.734 63.592C256.966 63.2909 257.209 63.0824 257.464 62.9665C257.719 62.8507 258.032 62.7928 258.402 62.7928H261.252L251.765 73.5132C251.533 73.7912 251.307 74.0229 251.087 74.2082C250.879 74.3819 250.653 74.5267 250.41 74.6426C250.722 74.7468 251.006 74.9032 251.261 75.1117C251.516 75.3086 251.765 75.5692 252.008 75.8936L261.912 87.6912H258.993C258.773 87.6912 258.582 87.6796 258.42 87.6565C258.269 87.6217 258.136 87.5754 258.02 87.5175C257.904 87.448 257.8 87.3727 257.707 87.2916C257.626 87.1989 257.545 87.0947 257.464 86.9788L248.881 77.0924C248.649 76.8029 248.4 76.6002 248.134 76.4843C247.867 76.3569 247.462 76.2932 246.917 76.2932H245.388V87.6912H242.035V62.7928H245.388V73.7043Z" fill="#F8AD3C"/>
<path d="M235.668 62.7928V87.6912H232.715V69.3953C232.715 69.1521 232.72 68.8914 232.732 68.6134C232.755 68.3354 232.778 68.0516 232.802 67.762L224.253 83.3301C223.987 83.8513 223.581 84.112 223.037 84.112H222.55C222.006 84.112 221.6 83.8513 221.334 83.3301L212.612 67.6925C212.681 68.3065 212.716 68.8741 212.716 69.3953V87.6912H209.762V62.7928H212.247C212.548 62.7928 212.78 62.8217 212.942 62.8797C213.104 62.9376 213.26 63.0997 213.411 63.3662L222.012 78.691C222.151 78.969 222.284 79.2585 222.411 79.5597C222.55 79.8609 222.678 80.1678 222.793 80.4806C222.909 80.1678 223.031 79.8609 223.158 79.5597C223.286 79.247 223.425 78.9516 223.575 78.6736L232.02 63.3662C232.159 63.0997 232.309 62.9376 232.471 62.8797C232.645 62.8217 232.883 62.7928 233.184 62.7928H235.668Z" fill="#F8AD3C"/>
<path d="M193.817 85.0155C194.848 85.0155 195.769 84.8417 196.58 84.4942C197.39 84.1467 198.074 83.6602 198.63 83.0347C199.197 82.4092 199.626 81.6621 199.916 80.7933C200.217 79.9246 200.367 78.9689 200.367 77.9264V62.7928H203.721V77.9264C203.721 79.3628 203.489 80.6949 203.026 81.9227C202.574 83.1505 201.92 84.2162 201.062 85.1197C200.217 86.0116 199.18 86.7124 197.952 87.2221C196.724 87.7318 195.346 87.9866 193.817 87.9866C192.288 87.9866 190.91 87.7318 189.682 87.2221C188.454 86.7124 187.411 86.0116 186.554 85.1197C185.697 84.2162 185.037 83.1505 184.573 81.9227C184.122 80.6949 183.896 79.3628 183.896 77.9264V62.7928H187.249V77.9091C187.249 78.9516 187.394 79.9072 187.684 80.776C187.985 81.6447 188.413 82.3918 188.969 83.0173C189.537 83.6428 190.226 84.1351 191.037 84.4942C191.859 84.8417 192.786 85.0155 193.817 85.0155Z" fill="#F8AD3C"/>
</svg>
