<svg width="301" height="275" viewBox="0 0 301 275" fill="none" xmlns="http://www.w3.org/2000/svg">
<path d="M162.761 10.3529C122.271 -8.69808 96.0229 19.4041 88.3543 38.0966L87.0666 42.3515C89.8272 79.2244 52.3332 92.6769 32.3949 94.0853C1.72059 100.538 1.46497 131.982 6.32173 145.554C14.1567 167.447 21.9145 182.811 23.576 189.724C21.7356 224.446 25.3654 238.76 27.4103 241.577C49.4958 281.523 88.7589 272.305 105.63 262.702C135.077 240.271 158.799 242.089 166.978 245.802C196.426 266.697 222.959 268.079 232.545 266.159C282.237 249.566 273.444 209.569 262.836 191.645C249.646 156.616 268.331 121.996 279.323 109.065C309.997 62.0518 293.893 33.6546 282.007 25.3325C269.737 10.5834 233.695 24.6924 213.757 34.1667C199.57 38.3918 170.685 18.2909 162.761 10.3529Z" stroke="#F8AD3C" stroke-width="8"/>
<path d="M156.8 19.115C117.83 0.777501 92.5681 27.8271 85.1875 45.8196L83.948 49.9151C86.6051 85.407 50.5186 98.3557 31.3289 99.7113C1.80617 105.922 1.56014 136.189 6.23457 149.252C13.7754 170.325 21.2419 185.114 22.8411 191.768C21.0697 225.19 24.5632 238.968 26.5314 241.679C47.7878 280.129 85.5769 271.256 101.814 262.013C130.156 240.422 152.987 242.172 160.86 245.746C189.202 265.858 214.739 267.189 223.965 265.34C271.791 249.369 263.328 210.87 253.118 193.617C240.423 159.9 258.408 126.577 268.987 114.13C298.509 68.8776 283.01 41.5439 271.57 33.5336C259.761 19.3368 225.072 32.9174 205.882 42.0369C192.228 46.1037 164.427 26.7556 156.8 19.115Z" fill="#00A39D"/>
</svg>
